<svg width="673" height="426" viewBox="0 0 673 426" fill="none" xmlns="http://www.w3.org/2000/svg">
<path d="M228.384 140.032C219.384 147.032 218.384 157.032 218.384 157.032C218.384 157.032 212.884 155.032 209.884 145.532C206.34 134.31 208.884 130.532 208.884 130.532C208.884 130.532 210.367 140.096 211.884 143.532C213.4 146.968 215.884 150.032 215.884 150.032C215.884 150.032 215.384 143.032 223.384 136.032C231.384 129.032 249.384 129.532 249.384 120.032C249.384 110.532 250.384 104.032 250.384 104.032C250.384 104.032 251.134 105.032 254.884 120.032C258.634 135.032 237.384 133.032 228.384 140.032Z" fill="white"/>
<path d="M336.499 19.0078C336.499 19.0143 336.501 19.0252 336.502 19.0391C336.504 19.0668 336.508 19.1095 336.513 19.166C336.523 19.2794 336.539 19.4498 336.565 19.6738C336.618 20.1227 336.709 20.7874 336.859 21.6406C337.161 23.3473 337.703 25.8096 338.664 28.8174C340.586 34.8327 344.186 43.0291 350.896 51.7266C357.592 60.4069 368.78 68.7424 379.16 75.9336C384.333 79.5173 389.321 82.8278 393.399 85.7266C397.469 88.6186 400.713 91.1556 402.388 93.2168C405.712 97.3084 406.988 101.78 407.434 105.218C407.657 106.938 407.673 108.404 407.633 109.442C407.618 109.823 407.594 110.146 407.571 110.404C407.877 110.336 408.276 110.242 408.741 110.113C409.846 109.806 411.314 109.316 412.776 108.585C414.201 107.873 416.028 106.297 417.529 104.858C418.272 104.146 418.923 103.48 419.388 102.992C419.62 102.748 419.806 102.549 419.934 102.411C419.997 102.342 420.046 102.288 420.079 102.252C420.096 102.234 420.108 102.22 420.116 102.211C420.12 102.206 420.124 102.203 420.126 102.201C420.127 102.2 420.127 102.199 420.128 102.198V102.197L421.1 101.119L420.999 102.566L420.5 102.532C420.991 102.566 420.999 102.567 420.999 102.567V102.57C420.999 102.571 420.998 102.573 420.998 102.574C420.998 102.578 420.998 102.583 420.997 102.588C420.996 102.599 420.995 102.614 420.993 102.632C420.989 102.668 420.983 102.72 420.973 102.785C420.953 102.915 420.919 103.101 420.861 103.336C420.747 103.805 420.539 104.47 420.164 105.277C419.413 106.895 417.995 109.076 415.329 111.408C413.224 113.25 409.86 114.27 407.1 114.835C405.707 115.12 404.441 115.294 403.524 115.396C403.066 115.448 402.693 115.481 402.435 115.502C402.305 115.512 402.205 115.52 402.136 115.524C402.101 115.527 402.075 115.528 402.057 115.529C402.048 115.53 402.041 115.531 402.036 115.531H402.028L402 115.032L402.027 115.531L401.404 115.566L401.507 114.95V114.949C401.507 114.948 401.507 114.947 401.508 114.944C401.509 114.939 401.51 114.931 401.512 114.921C401.515 114.9 401.519 114.868 401.525 114.825C401.538 114.74 401.555 114.611 401.574 114.445C401.613 114.113 401.662 113.629 401.696 113.027C401.765 111.822 401.78 110.148 401.565 108.276C401.135 104.523 399.788 100.043 396.173 96.9102C388.7 90.4333 381.548 85.3458 365.726 74.9502C357.76 69.7165 350.221 62.3295 344.672 55.2334C341.897 51.6844 339.611 48.1978 338.017 45.0791C337.116 43.3177 336.428 41.6559 336 40.1553C335.572 41.6559 334.884 43.3177 333.983 45.0791C332.389 48.1978 330.103 51.6844 327.328 55.2334C321.779 62.3295 314.24 69.7165 306.274 74.9502C290.452 85.3458 283.3 90.4333 275.827 96.9102C272.212 100.043 270.865 104.523 270.435 108.276C270.22 110.148 270.235 111.822 270.304 113.027C270.338 113.629 270.387 114.113 270.426 114.445C270.445 114.611 270.462 114.74 270.475 114.825C270.481 114.868 270.485 114.9 270.488 114.921C270.49 114.931 270.491 114.939 270.492 114.944C270.493 114.947 270.493 114.948 270.493 114.949V114.95L270.596 115.566L269.973 115.531L270 115.032L269.972 115.531H269.964C269.959 115.531 269.952 115.53 269.943 115.529C269.925 115.528 269.899 115.527 269.864 115.524C269.795 115.52 269.695 115.512 269.565 115.502C269.307 115.481 268.934 115.448 268.476 115.396C267.559 115.294 266.293 115.12 264.9 114.835C262.14 114.27 258.776 113.25 256.671 111.408C254.005 109.076 252.587 106.895 251.836 105.277C251.461 104.47 251.253 103.805 251.139 103.336C251.081 103.101 251.047 102.915 251.027 102.785C251.017 102.72 251.011 102.668 251.007 102.632C251.005 102.614 251.004 102.599 251.003 102.588C251.002 102.583 251.002 102.578 251.002 102.574C251.002 102.573 251.001 102.571 251.001 102.57V102.567C251.001 102.567 251.009 102.566 251.5 102.532L251.001 102.566L250.9 101.119L251.872 102.197V102.198C251.873 102.199 251.873 102.2 251.874 102.201C251.876 102.203 251.88 102.206 251.884 102.211C251.892 102.22 251.904 102.234 251.921 102.252C251.954 102.288 252.003 102.342 252.066 102.411C252.194 102.549 252.38 102.748 252.612 102.992C253.077 103.48 253.728 104.146 254.471 104.858C255.972 106.297 257.799 107.873 259.224 108.585C260.686 109.316 262.154 109.806 263.259 110.113C263.724 110.242 264.123 110.336 264.429 110.404C264.406 110.146 264.382 109.823 264.367 109.442C264.327 108.404 264.343 106.938 264.566 105.218C265.012 101.78 266.288 97.3084 269.612 93.2168C271.287 91.1556 274.531 88.6186 278.601 85.7266C282.679 82.8278 287.667 79.5173 292.84 75.9336C303.22 68.7424 314.408 60.4069 321.104 51.7266C327.814 43.0291 331.414 34.8327 333.336 28.8174C334.297 25.8096 334.839 23.3473 335.141 21.6406C335.291 20.7874 335.382 20.1227 335.435 19.6738C335.461 19.4498 335.477 19.2794 335.487 19.166C335.492 19.1095 335.496 19.0668 335.498 19.0391C335.499 19.0252 335.501 19.0143 335.501 19.0078V19L336 19.0156L336.499 19V19.0078Z" fill="white"/>
<path d="M135.5 189.032L128.78 196.032L121.5 189.032L128.78 182.032L135.5 189.032ZM120.5 189.032L117.5 192.032L26 189.032L117.5 186.032L120.5 189.032Z" fill="white"/>
<path d="M195.215 146.032L190.415 151.032L185.215 146.032L190.415 141.032L195.215 146.032ZM184.5 146.032L182.357 148.175L117 146.032L182.357 143.89L184.5 146.032Z" fill="white"/>
<path d="M477 146.032L481.8 151.032L487 146.032L481.8 141.032L477 146.032ZM487.715 146.032L489.857 148.175L555.215 146.032L489.857 143.89L487.715 146.032Z" fill="white"/>
<path d="M537.5 189.032L544.22 196.032L551.5 189.032L544.22 182.032L537.5 189.032ZM552.5 189.032L555.5 192.032L647 189.032L555.5 186.032L552.5 189.032Z" fill="white"/>
<path d="M443.939 140.032C452.939 147.032 453.939 157.032 453.939 157.032C453.939 157.032 459.439 155.032 462.439 145.532C465.983 134.31 463.44 130.532 463.44 130.532C463.44 130.532 461.956 140.096 460.439 143.532C458.923 146.968 456.44 150.032 456.44 150.032C456.44 150.032 456.939 143.032 448.939 136.032C440.939 129.032 422.939 129.532 422.939 120.032C422.939 110.532 421.939 104.032 421.939 104.032C421.939 104.032 421.189 105.032 417.439 120.032C413.689 135.032 434.939 133.032 443.939 140.032Z" fill="white"/>
<path d="M340.341 78.7925C349.444 88.5101 352.084 93.1993 350.123 101.764C347.925 111.361 331.292 114.481 325.133 123.14C319.958 130.411 329.847 140.261 333.756 150.893C327.724 140.863 313.801 138.633 313.711 122.986C313.648 111.816 324.989 106.064 333.69 98.7872C342.391 91.5105 342.481 89.3129 340.341 78.7925Z" fill="url(#paint0_linear_124_216)"/>
<path d="M350.143 97.9617C350.067 101.378 349.486 103.311 346.569 106.953C339.912 115.267 328.451 120.927 324.897 130.563C323.28 134.931 324.56 140.5 327.998 144.227C321.086 140.631 315.879 133.766 315.657 131.531C315.384 128.789 316.746 124.598 318.336 121.604C323.129 112.581 333.076 109.081 340.294 101.015C344.38 96.4626 347.753 91.6271 344.955 83.9706C349.771 88.7344 350.735 93.2961 350.143 97.9617Z" fill="url(#paint1_linear_124_216)"/>
<path d="M354.515 107.271C354.462 110.806 352.183 113.746 349.287 117.495C342.678 126.056 335.458 125.12 330.628 137.736C329.038 142.246 329.007 144.886 329.078 145.252C323.226 141.371 321.023 139.603 319.48 137.529C319.358 135.57 320.647 131.294 321.949 127.843C326.686 118.536 337.962 113.286 345.134 104.986C349.195 100.302 350.715 95.3381 347.862 87.3938C351.865 93.6407 354.583 102.701 354.515 107.271Z" fill="url(#paint2_linear_124_216)"/>
<path d="M354.047 102.331C355.38 109.192 357.898 113.83 354.553 120.65C351.97 125.924 339.627 131.734 333.977 140.313C332.05 143.239 331.98 148.676 333.9 151.15C331.641 147.089 327.541 144.317 327.741 144.373C328.112 139.668 331.008 133.727 334.6 129.844C339.767 124.259 346.327 120.617 349.512 116.693C353.829 112.531 354.714 107.802 354.047 102.331Z" fill="url(#paint3_linear_124_216)"/>
<path d="M355.674 109.324C357.079 116.55 357.104 122.052 354.25 125.929C344.874 138.668 333.205 141.222 334.081 151.589C331.851 147.572 331.613 146.267 332.356 142.716C333.922 135.251 346.197 128.668 351.511 122.094C355.574 117.602 355.781 113.29 355.674 109.324Z" fill="url(#paint4_linear_124_216)"/>
<path d="M71.312 309.408C62.776 309.408 55.032 307.692 48.08 304.26C41.216 300.74 35.76 295.548 31.712 288.684C27.664 281.82 25.64 273.416 25.64 263.472C25.64 255.904 26.872 249.26 29.336 243.54C31.8 237.82 35.144 233.024 39.368 229.152C43.68 225.28 48.608 222.376 54.152 220.44C59.784 218.504 65.724 217.536 71.972 217.536C76.988 217.536 81.608 218.108 85.832 219.252C90.056 220.396 94.016 221.98 97.712 224.004L98.24 240.24H96.92L90.32 229.68C89.44 228.008 88.472 226.512 87.416 225.192C86.36 223.784 85.04 222.728 83.456 222.024C82.136 221.408 80.816 220.968 79.496 220.704C78.264 220.352 76.68 220.176 74.744 220.176C69.64 220.176 64.976 221.54 60.752 224.268C56.616 226.996 53.272 231.528 50.72 237.864C48.256 244.112 47.024 252.692 47.024 263.604C47.024 274.428 48.212 283.008 50.588 289.344C52.964 295.592 56.176 300.08 60.224 302.808C64.36 305.448 68.98 306.768 74.084 306.768C76.9 306.768 79.144 306.592 80.816 306.24C82.488 305.8 84.16 305.184 85.832 304.392C87.504 303.688 88.78 302.676 89.66 301.356C90.54 299.948 91.332 298.452 92.036 296.868L97.844 283.932H99.164L98.768 302.808C95.072 304.744 90.936 306.328 86.36 307.56C81.784 308.792 76.768 309.408 71.312 309.408ZM145.221 309.408C138.533 309.408 132.593 308.22 127.401 305.844C122.297 303.468 118.293 299.728 115.389 294.624C112.573 289.432 111.165 282.612 111.165 274.164V228.624C111.165 225.28 109.449 223.08 106.017 222.024L103.113 221.232V219.912H139.677V221.232L135.849 222.288C132.593 223.08 130.965 225.28 130.965 228.888V277.596C130.965 285.78 132.681 291.852 136.113 295.812C139.545 299.684 144.473 301.62 150.897 301.62C157.585 301.62 162.865 299.552 166.737 295.416C170.697 291.28 172.677 285.428 172.677 277.86V229.416C172.677 227.656 172.369 226.116 171.753 224.796C171.225 223.388 170.081 222.464 168.321 222.024L165.021 221.232V219.912H183.501V221.232L179.937 222.156C178.265 222.508 177.165 223.344 176.637 224.664C176.109 225.984 175.845 227.524 175.845 229.284V277.596C175.845 284.02 174.569 289.652 172.017 294.492C169.465 299.244 165.901 302.94 161.325 305.58C156.749 308.132 151.381 309.408 145.221 309.408ZM186.908 307.032V305.712L189.68 304.656C191.528 303.952 192.672 303.116 193.112 302.148C193.64 301.092 193.904 299.684 193.904 297.924V229.02C193.904 227.26 193.64 225.852 193.112 224.796C192.584 223.74 191.44 222.904 189.68 222.288L186.908 221.232V219.912H220.568V221.232L218.192 222.288C216.52 222.904 215.376 223.784 214.76 224.928C214.144 225.984 213.836 227.392 213.836 229.152V304.392H234.164C237.42 304.392 239.796 303.6 241.292 302.016C242.876 300.432 244.372 298.144 245.78 295.152L250.928 284.064H252.248L251.06 307.032H186.908ZM265.311 307.032V305.712L270.723 304.392C274.331 303.6 276.135 301.4 276.135 297.792V222.552H264.915C261.659 222.552 259.327 223.432 257.919 225.192C256.511 226.864 255.015 229.196 253.431 232.188L248.679 241.428H247.359L248.019 219.912H324.183L324.711 241.428H323.391L318.639 232.188C317.143 229.196 315.691 226.864 314.283 225.192C312.875 223.432 310.543 222.552 307.287 222.552H296.067V297.792C296.067 301.4 297.871 303.6 301.479 304.392L306.891 305.712V307.032H265.311ZM370.936 309.408C364.248 309.408 358.308 308.22 353.116 305.844C348.012 303.468 344.008 299.728 341.104 294.624C338.288 289.432 336.88 282.612 336.88 274.164V228.624C336.88 225.28 335.164 223.08 331.732 222.024L328.828 221.232V219.912H365.392V221.232L361.564 222.288C358.308 223.08 356.68 225.28 356.68 228.888V277.596C356.68 285.78 358.396 291.852 361.828 295.812C365.26 299.684 370.188 301.62 376.612 301.62C383.3 301.62 388.58 299.552 392.452 295.416C396.412 291.28 398.392 285.428 398.392 277.86V229.416C398.392 227.656 398.084 226.116 397.468 224.796C396.94 223.388 395.796 222.464 394.035 222.024L390.736 221.232V219.912H409.216V221.232L405.652 222.156C403.98 222.508 402.88 223.344 402.352 224.664C401.824 225.984 401.56 227.524 401.56 229.284V277.596C401.56 284.02 400.284 289.652 397.732 294.492C395.18 299.244 391.616 302.94 387.04 305.58C382.464 308.132 377.096 309.408 370.936 309.408ZM412.623 307.032V305.712L415.395 304.788C417.155 304.172 418.299 303.38 418.827 302.412C419.355 301.356 419.619 299.904 419.619 298.056V229.02C419.619 227.26 419.355 225.896 418.827 224.928C418.387 223.872 417.331 223.036 415.659 222.42L412.623 221.232V219.912H450.375C460.759 219.912 468.723 221.892 474.267 225.852C479.811 229.724 482.583 235.136 482.583 242.088C482.583 245.96 481.131 249.832 478.227 253.704C475.323 257.576 470.747 260.568 464.499 262.68L482.847 299.112C483.639 300.608 484.519 301.84 485.487 302.808C486.543 303.688 487.907 304.48 489.579 305.184L491.295 305.844V307.032H467.667L448.131 265.452H439.155V298.056C439.155 299.728 439.419 301.092 439.947 302.148C440.475 303.204 441.575 303.996 443.247 304.524L446.415 305.712V307.032H412.623ZM439.155 262.812H445.491C451.827 262.812 456.403 261.14 459.219 257.796C462.035 254.364 463.443 249.304 463.443 242.616C463.443 235.84 462.123 230.824 459.483 227.568C456.843 224.224 452.399 222.552 446.151 222.552H439.155V262.812ZM494.951 307.032V305.712L498.251 304.524C500.011 303.82 501.375 302.984 502.343 302.016C503.311 300.96 504.103 299.508 504.719 297.66L531.911 219.648H543.131L569.927 298.188C570.631 300.124 571.423 301.62 572.303 302.676C573.183 303.644 574.547 304.48 576.395 305.184L577.979 305.712V307.032H544.451V305.712L546.431 305.052C548.279 304.348 549.379 303.38 549.731 302.148C550.171 300.828 550.127 299.288 549.599 297.528L543.395 278.52H514.091L507.755 297.132C507.139 299.068 506.919 300.608 507.095 301.752C507.359 302.896 508.415 303.82 510.263 304.524L513.167 305.712V307.032H494.951ZM515.015 275.88H542.603L529.271 234.828L515.015 275.88ZM582.134 307.032V305.712L584.906 304.656C586.754 303.952 587.898 303.116 588.338 302.148C588.866 301.092 589.13 299.684 589.13 297.924V229.02C589.13 227.26 588.866 225.852 588.338 224.796C587.81 223.74 586.666 222.904 584.906 222.288L582.134 221.232V219.912H615.794V221.232L613.418 222.288C611.746 222.904 610.602 223.784 609.986 224.928C609.37 225.984 609.062 227.392 609.062 229.152V304.392H629.39C632.646 304.392 635.022 303.6 636.518 302.016C638.102 300.432 639.598 298.144 641.006 295.152L646.154 284.064H647.474L646.286 307.032H582.134Z" fill="white"/>
<path d="M287.078 354.032V353.542L288.058 353.15C288.711 352.922 289.136 352.611 289.332 352.219C289.561 351.827 289.675 351.321 289.675 350.7V325.073C289.675 324.42 289.561 323.897 289.332 323.505C289.136 323.113 288.711 322.803 288.058 322.574L287.078 322.182V321.692H299.524V322.182L298.691 322.525C298.07 322.754 297.646 323.064 297.417 323.456C297.188 323.816 297.074 324.322 297.074 324.975V336.882H308.785V324.975C308.785 324.322 308.671 323.816 308.442 323.456C308.246 323.064 307.821 322.754 307.168 322.525L306.286 322.182V321.692H318.781V322.182L317.801 322.574C317.18 322.803 316.756 323.113 316.527 323.505C316.298 323.897 316.184 324.42 316.184 325.073V350.7C316.184 351.321 316.298 351.827 316.527 352.219C316.756 352.611 317.18 352.922 317.801 353.15L318.781 353.542V354.032H306.286V353.542L307.168 353.248C307.821 352.987 308.246 352.677 308.442 352.317C308.671 351.925 308.785 351.403 308.785 350.749V337.862H297.074V350.749C297.074 351.958 297.613 352.791 298.691 353.248L299.524 353.542V354.032H287.078ZM336.49 354.914C334.007 354.914 331.802 354.473 329.875 353.591C327.98 352.709 326.494 351.321 325.416 349.426C324.371 347.499 323.848 344.967 323.848 341.831V324.926C323.848 323.685 323.211 322.868 321.937 322.476L320.859 322.182V321.692H334.432V322.182L333.011 322.574C331.802 322.868 331.198 323.685 331.198 325.024V343.105C331.198 346.143 331.835 348.397 333.109 349.867C334.383 351.305 336.212 352.023 338.597 352.023C341.08 352.023 343.04 351.256 344.477 349.72C345.947 348.185 346.682 346.013 346.682 343.203V325.22C346.682 324.567 346.568 323.995 346.339 323.505C346.143 322.983 345.718 322.64 345.065 322.476L343.84 322.182V321.692H350.7V322.182L349.377 322.525C348.756 322.656 348.348 322.966 348.152 323.456C347.956 323.946 347.858 324.518 347.858 325.171V343.105C347.858 345.49 347.384 347.581 346.437 349.377C345.49 351.141 344.167 352.513 342.468 353.493C340.769 354.441 338.777 354.914 336.49 354.914ZM351.965 354.032V353.542L352.847 353.199C353.5 352.938 353.941 352.611 354.17 352.219C354.431 351.827 354.562 351.305 354.562 350.651V325.073C354.562 324.387 354.431 323.848 354.17 323.456C353.941 323.064 353.5 322.754 352.847 322.525L351.965 322.182V321.692H366.028C370.013 321.692 372.888 322.427 374.652 323.897C376.416 325.335 377.298 327.164 377.298 329.385C377.298 331.051 376.644 332.57 375.338 333.942C374.064 335.282 371.859 336.229 368.723 336.784C372.316 337.176 374.946 338.124 376.612 339.626C378.278 341.096 379.111 342.893 379.111 345.016C379.111 346.062 378.882 347.123 378.425 348.201C377.967 349.247 377.183 350.21 376.073 351.092C374.995 351.974 373.508 352.693 371.614 353.248C369.719 353.771 367.318 354.032 364.411 354.032H351.965ZM361.814 336.735H363.921C366.109 336.735 367.677 336.229 368.625 335.216C369.605 334.204 370.095 332.44 370.095 329.924C370.095 327.311 369.654 325.449 368.772 324.338C367.89 323.228 366.452 322.672 364.46 322.672H361.814V336.735ZM361.814 353.052H364.264C366.714 353.052 368.527 352.399 369.703 351.092C370.911 349.786 371.516 347.744 371.516 344.967C371.516 342.354 370.944 340.492 369.801 339.381C368.657 338.271 366.779 337.715 364.166 337.715H361.814V353.052Z" fill="white"/>
<path d="M204.36 203.032V202.432L206.82 201.832C208.46 201.472 209.28 200.472 209.28 198.832V164.632H204.18C202.7 164.632 201.64 165.032 201 165.832C200.36 166.592 199.68 167.652 198.96 169.012L196.8 173.212H196.2L196.5 163.432H231.12L231.36 173.212H230.76L228.6 169.012C227.92 167.652 227.26 166.592 226.62 165.832C225.98 165.032 224.92 164.632 223.44 164.632H218.34V198.832C218.34 200.472 219.16 201.472 220.8 201.832L223.26 202.432V203.032H204.36ZM233.937 203.032V202.432L235.137 201.952C235.937 201.672 236.457 201.292 236.697 200.812C236.977 200.332 237.117 199.712 237.117 198.952V167.572C237.117 166.772 236.977 166.132 236.697 165.652C236.457 165.172 235.937 164.792 235.137 164.512L233.937 164.032V163.432H249.177V164.032L248.157 164.452C247.397 164.732 246.877 165.112 246.597 165.592C246.317 166.032 246.177 166.652 246.177 167.452V182.032H260.517V167.452C260.517 166.652 260.377 166.032 260.097 165.592C259.857 165.112 259.337 164.732 258.537 164.452L257.457 164.032V163.432H272.757V164.032L271.557 164.512C270.797 164.792 270.277 165.172 269.997 165.652C269.717 166.132 269.577 166.772 269.577 167.572V198.952C269.577 199.712 269.717 200.332 269.997 200.812C270.277 201.292 270.797 201.672 271.557 201.952L272.757 202.432V203.032H257.457V202.432L258.537 202.072C259.337 201.752 259.857 201.372 260.097 200.932C260.377 200.452 260.517 199.812 260.517 199.012V183.232H246.177V199.012C246.177 200.492 246.837 201.512 248.157 202.072L249.177 202.432V203.032H233.937ZM274.582 203.032V202.432L276.082 201.892C276.882 201.572 277.502 201.192 277.942 200.752C278.382 200.272 278.742 199.612 279.022 198.772L291.382 163.312H296.482L308.662 199.012C308.982 199.892 309.342 200.572 309.742 201.052C310.142 201.492 310.762 201.872 311.602 202.192L312.322 202.432V203.032H297.082V202.432L297.982 202.132C298.822 201.812 299.322 201.372 299.482 200.812C299.682 200.212 299.662 199.512 299.422 198.712L296.602 190.072H283.282L280.402 198.532C280.122 199.412 280.022 200.112 280.102 200.632C280.222 201.152 280.702 201.572 281.542 201.892L282.862 202.432V203.032H274.582ZM283.702 188.872H296.242L290.182 170.212L283.702 188.872ZM314.211 203.032V202.432L315.411 201.952C316.211 201.672 316.731 201.292 316.971 200.812C317.251 200.332 317.391 199.692 317.391 198.892V167.572C317.391 166.772 317.271 166.132 317.031 165.652C316.791 165.172 316.251 164.792 315.411 164.512L314.211 164.032V163.432H329.631V164.032L328.431 164.512C327.631 164.792 327.091 165.172 326.811 165.652C326.571 166.132 326.451 166.772 326.451 167.572V198.892C326.451 199.692 326.571 200.332 326.811 200.812C327.091 201.252 327.631 201.632 328.431 201.952L329.631 202.432V203.032H314.211ZM332.258 203.032V202.432L333.518 201.952C334.358 201.632 334.878 201.252 335.078 200.812C335.318 200.332 335.438 199.692 335.438 198.892V167.572C335.438 166.772 335.318 166.132 335.078 165.652C334.838 165.172 334.318 164.792 333.518 164.512L332.258 164.032V163.432H347.558V164.032L346.478 164.512C345.718 164.792 345.198 165.192 344.918 165.712C344.638 166.192 344.498 166.832 344.498 167.632V201.832H353.738C355.218 201.832 356.298 201.472 356.978 200.752C357.698 200.032 358.378 198.992 359.018 197.632L361.358 192.592H361.958L361.418 203.032H332.258ZM363.82 203.032V202.432L365.32 201.892C366.12 201.572 366.74 201.192 367.18 200.752C367.62 200.272 367.98 199.612 368.26 198.772L380.62 163.312H385.72L397.9 199.012C398.22 199.892 398.58 200.572 398.98 201.052C399.38 201.492 400 201.872 400.84 202.192L401.56 202.432V203.032H386.32V202.432L387.22 202.132C388.06 201.812 388.56 201.372 388.72 200.812C388.92 200.212 388.9 199.512 388.66 198.712L385.84 190.072H372.52L369.64 198.532C369.36 199.412 369.26 200.112 369.34 200.632C369.46 201.152 369.94 201.572 370.78 201.892L372.1 202.432V203.032H363.82ZM372.94 188.872H385.48L379.42 170.212L372.94 188.872ZM404.229 203.032V202.432L406.209 201.832C406.929 201.632 407.449 201.252 407.769 200.692C408.089 200.092 408.249 199.392 408.249 198.592V169.732C407.809 168.772 407.449 168.052 407.169 167.572C406.929 167.092 406.649 166.692 406.329 166.372C406.009 166.012 405.569 165.572 405.009 165.052L403.989 164.032V163.432H414.609L434.529 190.612V167.992C434.529 167.192 434.389 166.472 434.109 165.832C433.869 165.192 433.349 164.772 432.549 164.572L430.569 164.032V163.432H439.149V164.032L437.529 164.572C436.809 164.812 436.369 165.232 436.209 165.832C436.049 166.432 435.969 167.132 435.969 167.932V203.212H432.609L409.689 171.712V198.592C409.689 199.392 409.809 200.072 410.049 200.632C410.289 201.192 410.789 201.592 411.549 201.832L413.349 202.432V203.032H404.229ZM442.062 203.032V202.432L443.322 201.952C444.602 201.432 445.242 200.412 445.242 198.892V167.572C445.242 165.972 444.602 164.952 443.322 164.512L442.062 164.032V163.432H457.902C462.142 163.432 465.782 164.232 468.822 165.832C471.902 167.392 474.262 169.652 475.902 172.612C477.582 175.532 478.422 179.052 478.422 183.172C478.422 187.372 477.522 190.952 475.722 193.912C473.922 196.872 471.402 199.132 468.162 200.692C464.962 202.252 461.182 203.032 456.822 203.032H442.062ZM454.242 201.832H456.822C459.702 201.832 462.022 201.272 463.782 200.152C465.542 198.992 466.822 197.072 467.622 194.392C468.462 191.672 468.882 187.952 468.882 183.232C468.882 178.512 468.462 174.812 467.622 172.132C466.822 169.412 465.562 167.492 463.842 166.372C462.122 165.212 459.862 164.632 457.062 164.632H454.242V201.832Z" fill="white"/>
<path d="M252 340.032L85 337.032L252 334.032V340.032Z" fill="white"/>
<path d="M416.5 334.032V337.032V340.032L583.5 337.032L416.5 334.032Z" fill="white"/>
<path d="M332.361 377.245C336.722 374.606 336.722 373.032 336.722 373.032C336.722 373.032 336.941 374.773 341.009 377.245C344.779 379.537 343.448 383.454 343.448 383.454C343.448 383.454 347.921 382.347 349.953 386.411C351.801 390.107 353.944 390.329 353.944 390.329C353.944 390.329 352.099 390.573 349.953 394.468C347.957 398.09 343.448 397.129 343.448 397.129C343.448 397.129 344.261 401.561 341.009 403.412C336.722 405.851 336.722 407.403 336.722 407.403C336.722 407.403 336.722 405.851 332.361 403.412C328.887 401.469 329.922 397.129 329.922 397.129C329.922 397.129 325.398 398.073 323.565 394.468C321.347 390.107 319.499 390.329 319.499 390.329C319.499 390.329 321.648 389.885 323.565 386.189C325.634 382.198 329.922 383.528 329.922 383.528C329.922 383.528 328.887 379.348 332.361 377.245Z" fill="white"/>
<path d="M334.504 388.037C335.719 386.837 336.721 384.268 336.721 384.268C336.721 384.268 337.841 386.825 339.086 388.037C340.229 389.149 342.561 390.181 342.561 390.181C342.561 390.181 340.249 391.438 339.086 392.62C337.935 393.79 336.721 396.094 336.721 396.094C336.721 396.094 335.624 393.775 334.504 392.62C333.3 391.379 330.808 390.181 330.808 390.181C330.808 390.181 333.317 389.21 334.504 388.037Z" fill="white"/>
<path d="M334.49 388.037C335.705 386.837 336.707 384.268 336.707 384.268C336.707 384.268 337.827 386.825 339.073 388.037C340.216 389.149 342.547 390.181 342.547 390.181C342.547 390.181 340.235 391.438 339.073 392.62C337.922 393.79 336.707 396.094 336.707 396.094C336.707 396.094 335.611 393.775 334.49 392.62C333.286 391.379 330.794 390.181 330.794 390.181C330.794 390.181 333.303 389.21 334.49 388.037Z" fill="white"/>
<path d="M426 367.532C426 367.532 409 376.404 398.5 377.532C388 378.661 371.5 375.032 362.5 377.032C353.5 379.032 351.5 384.032 351.5 384.032C351.5 384.032 354.5 382.032 360.5 381.032C366.5 380.032 391 382.743 401 380.532C411 378.322 426 367.532 426 367.532Z" fill="white"/>
<path d="M246.5 368.032C246.5 368.032 263.5 376.904 274 378.032C284.5 379.161 301 375.532 310 377.532C319 379.532 321 384.532 321 384.532C321 384.532 318 382.532 312 381.532C306 380.532 281.5 383.243 271.5 381.032C261.5 378.822 246.5 368.032 246.5 368.032Z" fill="white"/>
<defs>
<linearGradient id="paint0_linear_124_216" x1="308.513" y1="92.5361" x2="364.868" y2="148.035" gradientUnits="userSpaceOnUse">
<stop stop-color="#D6001C"/>
<stop offset="0.5" stop-color="#EF3340"/>
<stop offset="1" stop-color="#B90018"/>
</linearGradient>
<linearGradient id="paint1_linear_124_216" x1="327.941" y1="87.278" x2="327.785" y2="131.065" gradientUnits="userSpaceOnUse">
<stop stop-color="#D2D2D2"/>
<stop offset="0.126712" stop-color="white"/>
<stop offset="0.723998" stop-color="#FEFCFC"/>
<stop offset="1" stop-color="#CDCDCD"/>
</linearGradient>
<linearGradient id="paint2_linear_124_216" x1="322.005" y1="105.236" x2="367.513" y2="149.074" gradientUnits="userSpaceOnUse">
<stop stop-color="#050A4F"/>
<stop offset="0.55" stop-color="#111A68"/>
<stop offset="1" stop-color="#03073B"/>
</linearGradient>
<linearGradient id="paint3_linear_124_216" x1="341.257" y1="102.064" x2="348.059" y2="140.519" gradientUnits="userSpaceOnUse">
<stop stop-color="#C1C1C1"/>
<stop offset="0.5" stop-color="white"/>
<stop offset="1" stop-color="#CDCDCD"/>
</linearGradient>
<linearGradient id="paint4_linear_124_216" x1="319.711" y1="99.9643" x2="364.669" y2="144.09" gradientUnits="userSpaceOnUse">
<stop stop-color="#D6001C"/>
<stop offset="0.5" stop-color="#EF3340"/>
<stop offset="1" stop-color="#B90018"/>
</linearGradient>
</defs>
</svg>
